<?xml version="1.0" standalone="no"?>
<!DOCTYPE svg PUBLIC "-//W3C//DTD SVG 20010904//EN"
 "http://www.w3.org/TR/2001/REC-SVG-20010904/DTD/svg10.dtd">
<svg version="1.0" xmlns="http://www.w3.org/2000/svg"
 width="1600.000000pt" height="1200.000000pt" viewBox="0 0 1600.000000 1200.000000"
 preserveAspectRatio="xMidYMid meet">

<g transform="translate(0.000000,1200.000000) scale(0.100000,-0.100000)"
fill="#000000" stroke="none">
<path d="M2 11618 l3 -381 60 -14 c98 -23 177 -4 154 38 -5 10 -16 19 -23 19
-7 0 -30 15 -51 33 -34 30 -37 35 -26 56 11 19 18 22 44 17 18 -4 34 -11 35
-16 2 -6 12 -10 22 -10 10 0 20 -4 22 -9 4 -10 66 -47 162 -96 66 -33 119 -44
141 -27 17 12 36 52 25 52 -5 0 -10 9 -10 21 0 15 4 19 16 15 9 -3 18 -6 20
-6 2 0 4 -8 4 -18 0 -36 68 -72 137 -72 50 0 93 -25 93 -55 0 -31 -21 -51 -89
-82 -60 -28 -145 -34 -228 -18 -45 8 -73 -4 -73 -31 0 -26 63 -74 98 -74 37 0
101 -37 103 -60 6 -69 -42 -81 -99 -24 -65 65 -98 85 -126 78 -19 -4 -46 4
-103 34 -98 50 -186 76 -230 67 -18 -3 -31 -10 -28 -14 2 -5 -5 -11 -16 -14
-23 -6 -17 -27 8 -27 8 0 28 -9 44 -21 23 -16 33 -18 43 -10 17 14 27 10 161
-63 61 -33 134 -81 163 -107 44 -41 60 -48 99 -51 39 -3 50 -8 75 -39 25 -31
28 -40 19 -58 -8 -14 -21 -21 -42 -21 -27 0 -60 21 -156 100 -7 6 -23 8 -36 5
-23 -6 -59 9 -219 92 -27 13 -73 48 -103 78 -41 39 -61 52 -76 48 -18 -5 -20
-12 -17 -86 2 -59 7 -82 18 -87 8 -4 31 -15 50 -24 20 -9 50 -16 67 -14 17 1
42 -3 55 -9 45 -21 144 -72 188 -97 90 -50 144 -76 160 -76 9 0 26 10 39 21
17 16 26 18 34 10 6 -6 19 -11 29 -11 10 0 18 -4 18 -10 0 -6 28 -10 65 -10
98 0 105 -10 104 -141 -1 -111 -16 -156 -61 -180 -11 -6 -36 -25 -56 -43 -39
-34 -88 -56 -128 -56 -13 0 -24 4 -24 8 0 10 -72 30 -88 24 -7 -2 -17 -12 -22
-22 -8 -15 -5 -24 12 -43 38 -39 71 -57 103 -57 67 0 119 -101 75 -147 -29
-32 -58 -29 -109 13 -69 54 -102 38 -87 -42 8 -42 53 -75 110 -81 86 -10 130
-88 91 -162 -20 -39 -6 -49 91 -66 107 -19 113 -28 114 -170 0 -89 -3 -115
-17 -135 -19 -28 -54 -59 -66 -60 -4 0 -24 -11 -45 -24 -20 -14 -56 -30 -79
-37 -38 -11 -48 -9 -109 15 -37 15 -73 25 -80 22 -20 -8 -17 -63 4 -83 53 -50
105 -77 132 -68 18 6 70 -39 70 -61 0 -15 -38 -44 -58 -44 -7 0 -31 9 -53 19
-60 29 -94 34 -108 17 -18 -21 3 -82 35 -101 13 -8 36 -23 52 -32 15 -9 37
-16 49 -14 36 4 63 -16 63 -49 0 -42 -31 -46 -109 -16 -36 15 -69 22 -77 18
-22 -12 -54 -83 -54 -118 0 -28 6 -35 46 -55 49 -23 181 -39 193 -23 15 21 93
54 126 54 26 0 43 -7 60 -26 29 -31 29 -28 10 -79 -8 -22 -14 -57 -15 -77 0
-44 -7 -46 -67 -17 -43 21 -75 22 -143 4 -20 -5 -33 2 -68 34 -41 38 -47 41
-100 40 -105 -1 -151 -47 -157 -157 -5 -109 -12 -132 -40 -132 -12 0 -25 -6
-28 -13 -4 -10 -30 -14 -92 -15 -137 -2 -125 16 -125 -197 l0 -183 103 -13
c56 -8 113 -13 127 -11 14 1 45 -2 70 -8 25 -5 62 -12 82 -14 21 -3 43 -8 49
-12 12 -7 244 -50 324 -60 22 -3 56 -14 75 -24 86 -46 221 -76 328 -74 76 2
93 5 86 15 -6 11 31 35 82 53 34 11 69 12 200 5 115 -7 173 -6 209 2 27 6 143
13 256 15 187 2 209 5 241 23 19 12 40 33 46 47 25 54 18 92 -77 398 -17 55
-34 116 -37 136 -9 54 -55 132 -90 152 -58 33 -117 37 -414 24 -297 -14 -329
-19 -348 -61 -20 -43 -74 -74 -148 -85 -115 -16 -140 -14 -174 19 l-30 28 0
138 0 137 33 33 c27 27 44 34 88 39 80 10 117 10 189 2 49 -6 85 -4 145 10 62
14 129 18 295 20 258 2 398 14 435 38 72 47 82 128 35 301 -17 61 -40 153 -51
205 -35 155 -89 235 -176 259 -47 13 -152 14 -261 1 -45 -5 -140 -12 -210 -16
-161 -8 -172 -15 -172 -114 0 -75 -13 -99 -64 -124 -62 -29 -210 -17 -248 22
-24 23 -25 50 -9 200 14 136 21 156 63 183 29 18 44 20 126 15 l93 -4 49 47
c81 79 101 85 285 86 91 1 178 6 201 13 22 7 100 13 172 14 114 3 134 6 158
24 53 39 69 70 67 132 -2 72 -103 437 -141 512 -32 64 -87 106 -150 116 -69
11 -563 -24 -590 -42 -21 -14 -22 -22 -21 -99 2 -129 -19 -143 -216 -146
l-129 -1 -33 32 -34 31 7 102 c11 169 37 194 194 183 53 -3 117 -9 143 -12 39
-6 47 -4 47 9 0 8 6 17 12 19 9 3 14 57 18 194 5 177 7 192 29 232 23 38 28
42 65 42 67 1 475 30 1196 85 102 8 228 17 280 20 133 8 462 33 675 50 99 8
275 22 390 30 116 9 341 26 500 40 160 13 351 29 425 35 74 6 302 24 505 40
204 16 431 34 505 40 312 24 742 67 803 81 26 6 107 12 180 14 73 1 193 9 267
18 152 18 298 34 380 42 30 3 118 12 195 20 77 8 185 19 240 25 55 6 138 15
185 20 78 10 687 76 910 100 649 69 1001 113 1135 140 22 4 -2258 8 -5068 9
l-5107 1 2 -382z m206 -71 c20 -13 44 -27 52 -30 8 -4 29 -16 45 -27 17 -11
45 -27 63 -37 22 -12 32 -24 32 -41 0 -20 -4 -22 -22 -17 -13 4 -39 18 -58 31
-19 12 -64 39 -100 57 -73 39 -94 62 -70 77 19 12 15 14 58 -13z m1006 -237
c110 -38 130 -63 74 -92 -77 -38 -97 -41 -206 -34 -136 8 -153 12 -175 42 -32
43 10 92 93 108 48 9 155 -3 214 -24z m-570 -3118 c-7 -36 -19 -41 -27 -12 -3
11 2 27 10 36 20 20 24 14 17 -24z m186 -136 c0 -7 -6 -21 -14 -31 -14 -19
-15 -19 -35 -1 l-21 19 21 24 c17 17 25 20 36 12 7 -6 13 -17 13 -23z m-510
-56 c0 -11 4 -20 9 -20 4 0 21 -10 37 -22 36 -29 44 -31 131 -32 52 -1 77 -6
91 -19 10 -9 25 -17 33 -17 8 0 20 -5 27 -12 6 -6 43 -11 87 -11 70 0 76 -2
81 -23 11 -41 -2 -47 -88 -39 -44 3 -98 13 -120 21 -22 8 -60 14 -83 14 -24 0
-45 5 -47 11 -2 6 -39 17 -83 25 -43 7 -82 17 -87 22 -4 4 -10 34 -13 65 -4
46 -2 57 10 57 8 0 15 -9 15 -20z"/>
<path d="M11820 11979 c-82 -37 -195 -57 -495 -88 -55 -6 -183 -20 -285 -31
-102 -11 -311 -34 -465 -50 -154 -17 -318 -35 -365 -40 -258 -30 -352 -41
-415 -50 -38 -5 -99 -12 -135 -15 -36 -3 -94 -10 -130 -15 -36 -5 -110 -14
-165 -20 -145 -16 -418 -48 -505 -60 -41 -6 -136 -17 -210 -25 -303 -33 -409
-45 -485 -55 -70 -8 -438 -48 -750 -80 -241 -25 -298 -34 -317 -49 -17 -15
-18 -21 -8 -61 17 -67 71 -137 117 -149 38 -11 135 -4 279 19 34 6 95 10 135
10 41 0 155 7 254 15 99 8 297 24 440 35 143 12 314 25 380 31 66 5 210 16
320 24 239 17 430 32 580 45 61 6 252 21 425 35 328 26 423 33 805 65 127 10
329 26 450 35 121 9 240 20 265 26 25 5 97 12 160 14 63 3 135 7 160 10 51 6
348 32 515 45 323 25 614 52 642 59 17 5 51 8 75 7 53 -4 229 10 323 24 39 6
130 14 203 19 107 7 137 12 150 26 13 13 14 19 5 22 -7 3 -13 15 -13 28 0 18
7 25 33 30 17 4 35 11 38 16 3 5 15 0 27 -11 18 -17 20 -25 11 -47 -11 -30
-10 -33 22 -34 25 -2 256 18 319 26 19 3 93 10 164 15 71 5 131 12 134 15 11
10 -39 47 -58 42 -16 -4 -17 -2 -8 19 6 13 17 24 24 24 6 0 14 7 18 15 7 19
52 37 89 37 15 0 41 -12 58 -26 17 -15 35 -24 40 -20 21 13 7 -16 -21 -42 -35
-34 -25 -45 35 -39 132 14 425 34 515 35 64 0 95 14 68 30 -35 21 -45 38 -40
69 2 17 8 34 13 37 5 3 9 9 9 15 0 5 -641 9 -1692 8 -1670 0 -1694 -1 -1738
-20z m3300 -49 c0 -5 -8 -10 -17 -10 -15 0 -16 2 -3 10 19 12 20 12 20 0z m31
-15 c5 4 6 -1 3 -9 -3 -9 -14 -16 -23 -17 -9 0 -33 -1 -54 -2 -20 -1 -37 1
-37 6 0 7 6 8 50 11 10 0 25 7 32 14 8 8 14 9 16 2 2 -5 8 -8 13 -5z m-191
-31 c0 -13 -41 -17 -217 -18 -13 0 -23 -4 -23 -9 0 -4 -6 -2 -14 5 -23 22 12
35 98 36 43 1 80 3 82 5 10 9 74 -7 74 -19z m-560 -40 c0 -6 -15 -14 -32 -17
-18 -4 -49 -9 -68 -12 l-35 -6 25 20 c14 11 26 18 28 16 2 -1 15 0 30 4 39 11
52 9 52 -5z"/>
<path d="M15916 11991 c-3 -4 -34 -11 -68 -15 -60 -6 -92 -12 -323 -52 -58
-10 -108 -25 -120 -34 -11 -10 -27 -20 -35 -23 -28 -10 134 -7 355 8 121 8
232 15 248 15 26 0 27 2 27 55 l0 55 -39 0 c-22 0 -42 -4 -45 -9z"/>
<path d="M15690 11364 c-83 -13 -159 -22 -554 -64 -104 -11 -190 -21 -191 -22
-1 -2 -9 -16 -18 -33 -26 -53 -29 -90 -11 -161 11 -45 19 -133 23 -254 l6
-185 70 -3 c39 -2 167 4 285 13 l215 15 103 -25 c57 -14 111 -25 121 -25 37 0
39 25 67 609 5 107 4 135 -7 142 -8 5 -16 8 -19 7 -3 0 -43 -7 -90 -14z"/>
<path d="M14485 11269 c-22 -4 -110 -15 -195 -24 -85 -9 -216 -23 -290 -31
-74 -8 -154 -14 -177 -14 -82 0 -113 -70 -90 -203 8 -47 15 -155 16 -252 1
-161 2 -171 22 -188 12 -9 29 -15 38 -13 9 3 106 10 216 16 110 6 239 13 287
17 74 5 98 2 156 -16 87 -28 113 -25 123 13 5 16 9 180 11 365 l3 336 -40 2
c-22 0 -58 -3 -80 -8z"/>
<path d="M13275 11174 c-120 -15 -386 -41 -505 -50 -137 -9 -139 -11 -161 -57
-21 -47 -24 -114 -9 -167 6 -19 11 -114 11 -212 -1 -156 1 -179 17 -199 l19
-22 254 17 c140 9 275 19 301 22 36 3 67 -2 125 -22 l77 -27 18 23 c17 20 18
49 18 356 0 319 -1 334 -19 344 -11 5 -23 10 -28 9 -4 -1 -57 -7 -118 -15z"/>
<path d="M12050 11080 c-237 -26 -365 -39 -445 -46 -40 -3 -77 -12 -87 -21
-25 -23 -41 -105 -33 -171 4 -31 10 -140 14 -241 6 -182 6 -184 31 -201 22
-15 37 -16 115 -9 50 5 188 16 307 24 193 13 223 13 260 0 62 -21 83 -19 96
10 17 36 15 587 -1 635 -11 32 -16 35 -52 36 -22 1 -114 -6 -205 -16z"/>
<path d="M11070 11009 c-30 -4 -109 -13 -175 -19 -270 -24 -421 -42 -441 -50
-13 -5 -28 -26 -37 -54 -14 -40 -14 -76 -4 -297 11 -249 11 -251 35 -267 22
-15 50 -14 332 6 256 19 316 20 354 10 42 -11 48 -10 66 7 18 19 19 38 21 315
3 385 8 373 -151 349z"/>
<path d="M10015 10929 c-86 -13 -481 -49 -532 -49 -23 0 -53 -5 -67 -11 -35
-16 -59 -86 -52 -152 3 -29 9 -141 12 -249 6 -177 8 -199 25 -214 18 -16 33
-17 237 -4 119 8 280 15 357 15 l140 1 12 34 c16 47 18 533 2 581 -13 38 -35
60 -58 58 -9 -1 -43 -5 -76 -10z"/>
<path d="M8955 10845 c-13 -6 -335 -35 -457 -42 -76 -4 -101 -10 -114 -24 -27
-30 -36 -94 -24 -178 5 -42 11 -147 12 -234 3 -153 4 -159 27 -178 27 -22 134
-26 297 -9 55 6 165 11 246 13 133 2 149 5 162 22 13 17 15 67 16 292 0 339
-1 343 -94 342 -34 0 -65 -2 -71 -4z"/>
<path d="M7995 10765 c-15 -7 -342 -35 -477 -42 -67 -3 -122 -11 -126 -17 -21
-27 -33 -101 -21 -136 6 -19 13 -118 16 -220 5 -192 11 -217 52 -239 12 -7 89
-6 237 4 121 8 256 15 301 15 128 0 123 -13 123 305 0 256 -1 263 -23 296 -21
32 -54 45 -82 34z"/>
<path d="M6440 10719 c-63 -4 -146 -10 -185 -13 -38 -4 -142 -11 -230 -16 -88
-5 -263 -17 -390 -25 -337 -23 -476 -32 -1025 -66 -740 -45 -955 -59 -1170
-74 -41 -3 -140 -10 -220 -15 -80 -5 -152 -11 -161 -15 -42 -16 -65 -132 -39
-199 20 -54 18 -54 675 -11 308 21 502 33 700 45 94 6 310 19 480 30 171 11
387 24 480 30 205 12 400 24 806 50 168 11 326 20 352 20 92 0 117 29 117 139
0 53 -4 74 -20 93 -26 33 -34 35 -170 27z"/>
<path d="M17 10705 c-15 -11 -17 -25 -15 -80 l3 -68 59 -15 c44 -11 64 -11 82
-3 41 18 40 39 -2 77 -22 20 -55 51 -74 69 -31 30 -37 32 -53 20z"/>
<path d="M6355 10133 c-27 -1 -117 -7 -200 -13 -82 -5 -199 -12 -260 -15 -60
-3 -135 -8 -165 -10 -30 -3 -140 -10 -245 -15 -104 -5 -311 -16 -460 -25 -148
-8 -394 -22 -545 -30 -151 -8 -347 -19 -435 -25 -88 -5 -248 -14 -355 -20
-107 -5 -215 -12 -240 -14 -25 -3 -117 -8 -205 -12 -173 -6 -197 -13 -223 -67
-18 -37 -6 -139 20 -166 22 -25 89 -27 308 -11 74 5 272 17 440 25 168 9 386
20 485 25 99 5 270 14 380 20 305 15 985 54 1260 71 94 6 280 16 415 24 135 7
252 16 261 19 50 21 68 161 28 217 -20 29 -21 29 -117 27 -53 -1 -119 -3 -147
-5z"/>
<path d="M0 10067 c0 -72 18 -107 56 -107 13 0 33 -5 43 -12 15 -9 28 -9 61 2
45 15 65 40 55 69 -7 24 -99 88 -145 101 -67 19 -70 17 -70 -53z"/>
<path d="M15669 10116 c-74 -21 -188 -34 -443 -52 -216 -16 -241 -19 -260 -38
-21 -21 -21 -25 -16 -299 4 -232 7 -279 20 -287 15 -10 102 -8 415 10 142 8
182 7 245 -6 119 -24 132 -23 148 10 21 41 23 635 3 659 -16 20 -48 20 -112 3z"/>
<path d="M14498 10045 c-77 -27 -110 -31 -418 -50 -262 -17 -290 -21 -306 -44
-8 -10 -13 -79 -13 -209 -1 -169 1 -198 17 -236 18 -40 23 -43 77 -54 32 -7
86 -12 120 -12 41 0 87 -9 136 -26 68 -24 81 -25 169 -18 52 4 100 8 105 9 14
2 107 -24 127 -35 30 -17 76 -12 88 9 13 26 14 635 0 660 -15 29 -32 30 -102
6z"/>
<path d="M13343 9975 c-50 -19 -96 -25 -245 -34 -101 -6 -241 -16 -312 -23
-169 -15 -167 -13 -160 -162 3 -61 6 -180 7 -264 2 -141 4 -155 22 -168 14
-11 33 -13 65 -9 98 13 472 24 497 14 34 -13 80 -11 89 3 4 7 7 28 6 48 -3 48
4 54 70 69 35 7 59 18 63 29 8 21 7 447 -2 482 -6 23 -21 41 -33 39 -3 -1 -33
-11 -67 -24z"/>
<path d="M12220 9900 c-32 -12 -97 -21 -210 -29 -318 -21 -458 -34 -473 -46
-14 -10 -17 -48 -22 -249 -6 -263 0 -312 39 -322 13 -3 104 -1 202 6 392 24
414 24 473 1 65 -26 88 -21 96 22 4 18 5 161 3 318 -4 345 -2 341 -108 299z"/>
<path d="M17 9876 c-13 -10 -17 -28 -17 -85 l0 -72 48 -20 c26 -11 55 -24 64
-29 10 -6 22 -10 27 -10 16 0 61 52 61 71 0 24 -49 79 -110 124 -54 40 -50 39
-73 21z"/>
<path d="M11133 9829 c-6 -6 -68 -15 -139 -20 -490 -35 -515 -38 -539 -53 -30
-20 -31 -26 -25 -309 5 -224 6 -240 25 -253 13 -10 31 -13 50 -9 122 23 599
38 671 21 50 -13 54 10 54 308 0 300 -4 326 -54 326 -18 0 -37 -5 -43 -11z"/>
<path d="M10068 9759 c-10 -5 -46 -12 -80 -14 -35 -3 -157 -12 -273 -20 -260
-19 -285 -23 -308 -40 -17 -12 -18 -32 -17 -244 0 -127 5 -242 10 -256 5 -13
17 -28 28 -34 25 -14 137 -15 403 -6 167 6 235 5 260 -4 31 -11 36 -10 52 10
15 19 17 49 17 298 0 234 -2 280 -16 299 -16 23 -48 28 -76 11z"/>
<path d="M9050 9691 c-8 -5 -58 -11 -110 -15 -52 -3 -189 -12 -304 -20 -267
-19 -254 -10 -254 -178 0 -89 -4 -123 -14 -130 -13 -8 -133 -2 -213 11 l-40 6
-5 111 c-7 156 2 150 -208 135 -92 -6 -232 -16 -312 -21 -137 -9 -146 -11
-167 -35 -21 -24 -22 -32 -17 -138 3 -61 10 -134 15 -160 15 -81 12 -106 -18
-130 -27 -22 -172 -161 -285 -275 -34 -33 -65 -76 -75 -102 -10 -25 -37 -78
-62 -117 l-44 -73 -2 -163 c-1 -89 -6 -173 -10 -186 -5 -16 -2 -26 12 -36 17
-13 17 -14 1 -15 -20 0 -24 -15 -33 -111 -3 -36 -12 -83 -20 -105 -10 -30 -12
-89 -7 -258 l5 -219 -38 29 -38 28 6 -34 c3 -19 9 -50 13 -68 7 -36 -13 -74
-27 -50 -19 31 -19 -7 1 -78 18 -64 21 -93 16 -159 -5 -63 -2 -96 14 -155 11
-41 20 -84 20 -95 0 -11 11 -42 25 -69 14 -27 25 -66 25 -87 0 -52 32 -122 67
-147 20 -14 49 -22 88 -24 l59 -4 23 -69 c59 -184 66 -243 80 -642 l6 -192
-32 -49 c-41 -64 -121 -139 -158 -148 -31 -8 -133 -54 -133 -61 0 -9 37 -40
62 -50 24 -11 28 -10 33 7 11 35 41 19 48 -25 4 -27 4 -27 6 8 1 29 5 37 20
37 38 0 74 -29 100 -81 14 -29 33 -55 41 -57 13 -5 13 -3 0 13 -9 11 -11 20
-5 22 6 2 9 19 7 38 -4 29 0 36 22 46 20 10 35 9 67 -1 35 -12 45 -22 64 -65
13 -28 30 -70 38 -93 8 -23 34 -73 57 -111 36 -60 51 -75 105 -105 83 -46 135
-63 255 -82 93 -16 99 -19 111 -45 12 -30 29 -39 29 -16 0 12 28 28 95 53 11
4 34 9 50 11 17 3 34 9 39 14 6 5 17 9 25 9 31 0 199 110 233 152 70 90 140
172 151 176 4 2 7 10 7 17 0 8 8 16 18 19 35 11 170 151 217 224 26 40 45 76
42 79 -3 2 -13 -7 -22 -21 -10 -14 -22 -26 -27 -26 -6 0 -5 7 2 15 11 13 10
14 -4 9 -9 -3 -16 -12 -16 -20 0 -8 -9 -14 -20 -14 -11 0 -20 -4 -20 -8 0 -4
-25 -35 -55 -67 -30 -33 -55 -63 -55 -67 0 -5 -7 -8 -15 -8 -7 0 -18 -6 -22
-13 -10 -16 -90 -47 -121 -47 -12 0 -22 -6 -22 -12 0 -10 -2 -10 -8 -1 -5 9
-46 11 -147 8 -76 -2 -143 -1 -149 2 -5 4 -32 5 -59 4 -30 -2 -57 3 -72 13
-20 13 -24 14 -29 0 -5 -13 -9 -13 -31 2 -14 9 -25 13 -25 9 0 -7 -55 30 -78
52 -7 7 -17 13 -22 13 -8 0 -74 98 -75 111 0 3 -10 19 -22 35 -51 65 -83 115
-83 126 0 15 -37 107 -64 158 -10 19 -36 56 -57 81 -21 26 -48 68 -60 95 -12
27 -25 57 -30 66 -5 9 -18 66 -30 125 -12 59 -26 111 -31 114 -6 4 -6 9 1 13
16 10 14 55 -4 72 -8 9 -15 24 -15 34 0 22 -16 35 -25 20 -10 -15 -23 -12 -28
8 -8 30 -6 -70 3 -128 9 -62 -4 -108 -14 -50 -4 19 -8 58 -10 86 -2 27 -9 61
-16 74 -8 16 -9 25 -2 28 12 4 4 41 -13 62 -7 8 -15 26 -18 40 -3 14 -14 50
-26 80 -12 30 -21 66 -21 80 0 14 -9 39 -20 55 -11 17 -20 42 -20 58 0 15 -4
27 -10 27 -5 0 -10 9 -10 21 0 11 -5 29 -10 39 -7 13 -7 21 0 25 15 9 12 25
-4 19 -21 -8 -78 100 -71 132 13 57 15 68 9 56 -3 -6 -10 -9 -16 -6 -5 4 -3
13 6 23 8 9 16 38 18 65 3 55 20 69 39 34 22 -40 29 -88 13 -88 -31 0 -12 -25
21 -27 26 -2 35 1 35 12 0 11 12 15 44 15 35 0 48 -5 61 -22 14 -21 24 -23
111 -24 82 0 93 2 78 13 -16 12 -16 13 8 13 15 0 30 5 33 10 5 8 11 8 20 0 8
-7 16 -7 19 -2 3 6 -1 12 -9 16 -21 8 -19 22 7 46 28 25 148 30 148 5 0 -8 14
-17 38 -21 20 -4 49 -13 64 -20 15 -8 34 -11 42 -8 9 4 16 1 16 -6 0 -9 18
-11 69 -8 39 3 74 1 79 -4 7 -7 14 -3 21 11 7 12 18 21 25 21 7 0 21 17 30 39
10 21 29 44 43 50 18 8 22 15 15 24 -10 12 -12 18 -12 35 0 22 -95 59 -173 67
-9 1 -23 7 -29 13 -16 16 -121 15 -136 0 -9 -9 -12 -8 -12 4 0 17 -26 32 -41
22 -6 -3 -16 0 -24 6 -12 10 -16 9 -21 -4 -3 -9 -14 -16 -24 -16 -10 0 -23 -7
-30 -15 -7 -8 -16 -12 -21 -9 -5 3 -8 0 -7 -8 2 -9 -11 -13 -47 -13 -34 0 -49
4 -48 12 2 9 -7 11 -29 6 -22 -4 -29 -3 -24 5 10 17 -39 26 -75 13 -18 -6 -33
-11 -33 -11 -1 0 -2 12 -1 26 0 24 -4 27 -38 28 -20 1 -42 7 -49 14 -18 18
-37 14 -31 -7 3 -10 0 -22 -6 -25 -7 -4 -11 1 -11 13 0 12 -6 21 -12 21 -10 0
-9 3 1 9 7 5 9 11 4 14 -12 7 -4 67 8 67 10 0 12 31 3 54 -3 8 -11 13 -18 10
-7 -3 -18 7 -24 21 -16 35 -15 38 9 32 18 -5 18 -3 7 11 -7 9 -17 20 -22 23
-4 4 1 16 13 28 13 13 20 32 19 49 -1 15 1 33 5 39 10 16 -13 73 -30 73 -11 0
-13 4 -6 13 12 15 8 118 -5 126 -5 3 -12 16 -16 29 -4 12 -14 22 -22 22 -13 0
-13 2 0 16 14 14 14 17 1 31 -18 18 -11 35 12 26 10 -4 14 -2 10 4 -4 5 -1 24
5 41 10 26 9 34 -6 51 -14 15 -16 24 -8 34 6 7 9 23 5 35 -3 13 0 24 8 27 14
5 19 51 8 70 -7 13 -5 23 9 58 15 36 15 37 -5 38 -15 0 -15 2 2 9 11 5 38 27
60 50 50 52 161 110 198 103 15 -3 34 0 41 7 17 13 118 42 125 35 2 -3 -13
-12 -35 -21 -21 -9 -43 -22 -49 -30 -5 -8 -24 -19 -40 -24 -28 -9 -28 -10 11
-6 22 2 63 14 90 27 60 27 136 36 127 13 -3 -8 -10 -14 -17 -13 -17 3 -66 -12
-66 -20 0 -11 102 -6 131 7 15 6 30 8 35 4 4 -4 4 -2 1 4 -8 14 55 46 96 50
24 1 27 -1 21 -19 -5 -17 -3 -19 12 -12 28 11 114 26 154 26 28 1 31 2 15 9
-11 4 -44 6 -72 3 -35 -3 -53 -1 -53 6 0 24 210 16 265 -10 41 -19 43 -19 255
-9 l45 2 -55 12 c-84 19 -99 31 -37 31 29 0 72 3 97 6 25 3 37 4 28 2 -10 -3
-18 -9 -18 -14 0 -6 9 -7 23 -2 12 4 45 7 72 6 43 -2 47 -1 28 9 -13 6 -23 15
-23 20 0 4 -8 8 -18 8 -22 0 -47 37 -29 43 7 2 0 14 -17 32 l-28 28 39 -8 c21
-4 54 -14 73 -22 19 -9 46 -18 59 -20 22 -4 23 -2 10 13 -13 16 -11 17 31 11
24 -3 46 -10 48 -15 2 -6 11 -8 21 -5 11 3 21 -2 24 -11 4 -9 12 -13 20 -11 7
3 30 -1 50 -10 42 -17 59 -13 50 13 -6 15 -5 15 11 2 11 -8 14 -16 7 -18 -19
-6 -12 -26 13 -38 15 -7 28 -8 34 -2 13 13 60 -11 67 -34 4 -10 15 -22 25 -28
21 -11 98 -117 133 -182 13 -24 29 -66 36 -93 7 -28 23 -70 34 -94 16 -32 18
-46 10 -48 -9 -3 -9 -10 2 -27 9 -13 14 -32 13 -42 -3 -28 21 -104 34 -104 7
0 6 -5 -2 -15 -10 -12 -10 -19 2 -37 19 -31 12 -61 -13 -53 -11 4 -19 2 -19
-4 0 -6 9 -11 19 -11 11 0 22 -4 26 -10 3 -5 12 -7 19 -4 9 3 17 -3 21 -15 3
-12 10 -19 15 -16 4 3 10 -5 14 -18 l6 -22 22 26 c29 34 54 37 358 45 152 4
244 2 261 -4 20 -8 32 -7 45 3 18 12 19 34 22 290 3 238 1 280 -13 301 -16 25
-53 32 -71 14 -6 -6 -129 -17 -275 -25 -145 -8 -300 -17 -345 -21 -81 -6 -81
-6 -100 22 -11 16 -29 47 -39 69 -11 22 -42 67 -70 99 -51 61 -86 112 -105
156 -6 14 -22 41 -35 60 -22 31 -23 40 -14 70 5 19 13 46 16 60 4 14 6 142 6
285 -1 255 -1 259 -23 277 -25 20 -29 21 -50 9z m-1000 -401 c8 -5 11 -10 5
-10 -5 0 -17 5 -25 10 -8 5 -10 10 -5 10 6 0 17 -5 25 -10z m-33 -86 c-3 -3
-12 -4 -19 -1 -8 3 -5 6 6 6 11 1 17 -2 13 -5z m298 -12 c-3 -3 -11 0 -18 7
-9 10 -8 11 6 5 10 -3 15 -9 12 -12z m-358 2 c-3 -3 -12 -4 -19 -1 -8 3 -5 6
6 6 11 1 17 -2 13 -5z m438 -4 c4 -6 -5 -10 -19 -10 -14 0 -26 5 -26 10 0 6 9
10 19 10 11 0 23 -4 26 -10z m-267 -27 c-10 -2 -26 -2 -35 0 -10 3 -2 5 17 5
19 0 27 -2 18 -5z m302 -143 c8 -5 11 -10 5 -10 -5 0 -17 5 -25 10 -8 5 -10
10 -5 10 6 0 17 -5 25 -10z m-94 -24 c21 -22 18 -26 -21 -26 -19 0 -35 5 -35
10 0 6 9 10 21 10 11 0 17 5 14 10 -9 15 4 12 21 -4z m-82 -5 c7 -10 -16 -21
-45 -21 -12 0 -16 5 -13 15 7 16 49 21 58 6z m143 3 c-3 -3 -12 -4 -19 -1 -8
3 -5 6 6 6 11 1 17 -2 13 -5z m40 0 c-3 -3 -12 -4 -19 -1 -8 3 -5 6 6 6 11 1
17 -2 13 -5z m88 -4 c8 -13 -5 -13 -25 0 -13 8 -13 10 2 10 9 0 20 -4 23 -10z
m104 -21 c-8 -4 -25 -6 -39 -2 -44 10 -40 18 7 14 30 -2 41 -6 32 -12z m-222
-5 c-3 -3 -12 -4 -19 -1 -8 3 -5 6 6 6 11 1 17 -2 13 -5z m-120 -10 c-3 -3
-12 -4 -19 -1 -8 3 -5 6 6 6 11 1 17 -2 13 -5z m193 -4 c0 -5 -4 -10 -9 -10
-6 0 -13 5 -16 10 -3 6 1 10 9 10 9 0 16 -4 16 -10z m191 -6 c17 -8 29 -17 27
-20 -5 -4 -68 25 -68 32 0 7 10 4 41 -12z m-265 -29 c-4 -12 3 -15 34 -15 43
0 90 -15 90 -29 0 -5 -15 -7 -32 -5 -18 1 -40 3 -48 4 -13 0 -13 1 0 10 13 9
13 10 0 10 -8 0 -32 -3 -52 -6 l-37 -6 22 -19 c20 -18 20 -19 2 -12 -11 3 -28
12 -37 20 -15 14 -15 16 2 33 29 29 66 39 56 15z m-220 -14 c-3 -5 -15 -7 -26
-4 -28 7 -25 13 6 13 14 0 23 -4 20 -9z m369 -1 c8 -13 -5 -13 -25 0 -13 8
-13 10 2 10 9 0 20 -4 23 -10z m-299 -31 c-26 -6 -43 -6 -50 1 -7 7 6 10 40 9
l49 -1 -39 -9z m-61 -70 c19 -5 4 -6 -39 -3 -68 4 -102 13 -55 15 15 0 19 3 9
6 -16 7 -40 29 -40 37 0 3 21 -6 48 -21 26 -15 61 -30 77 -34z m12 25 c-3 -3
-12 -4 -19 -1 -8 3 -5 6 6 6 11 1 17 -2 13 -5z m213 -3 l25 -7 -28 -6 c-35 -7
-69 1 -61 13 6 10 28 10 64 0z m-95 -32 c22 -6 49 -17 59 -25 17 -12 11 -13
-45 -10 -73 3 -121 14 -114 26 3 4 22 4 42 0 35 -8 36 -7 19 6 -24 17 -14 18
39 3z m-885 -44 c-7 -8 -20 -15 -29 -15 -13 1 -13 3 3 15 26 19 42 19 26 0z
m193 8 c-7 -2 -19 -2 -25 0 -7 3 -2 5 12 5 14 0 19 -2 13 -5z m-583 -262 c0
-5 -7 -12 -16 -15 -14 -5 -15 -4 -4 9 14 17 20 19 20 6z m77 -493 c-3 -8 -6
-5 -6 6 -1 11 2 17 5 13 3 -3 4 -12 1 -19z m23 -213 c0 -16 -6 -25 -15 -25
-15 0 -21 31 -8 43 13 14 23 6 23 -18z m50 -159 c0 -14 -29 -31 -38 -22 -2 3
-2 12 1 21 8 19 37 20 37 1z m-67 -118 c6 -4 8 -10 4 -14 -4 -4 -16 1 -27 11
-16 15 -18 21 -7 33 10 13 12 13 16 -4 2 -10 8 -22 14 -26z m67 -78 c0 -5 -2
-10 -4 -10 -3 0 -8 5 -11 10 -3 6 -1 10 4 10 6 0 11 -4 11 -10z m203 -57 c-7
-2 -19 -2 -25 0 -7 3 -2 5 12 5 14 0 19 -2 13 -5z m-303 -37 c0 -3 -4 -8 -10
-11 -5 -3 -10 -1 -10 4 0 6 5 11 10 11 6 0 10 -2 10 -4z m-100 -166 c0 -5 -4
-10 -10 -10 -5 0 -10 5 -10 10 0 6 5 10 10 10 6 0 10 -4 10 -10z m-56 -436 c4
-9 4 -19 1 -22 -3 -3 -5 0 -5 6 0 7 -7 12 -15 12 -8 0 -15 5 -15 10 0 16 27
11 34 -6z m363 -546 c-3 -7 -5 -2 -5 12 0 14 2 19 5 13 2 -7 2 -19 0 -25z
m644 -996 c-7 -2 -18 1 -23 6 -8 8 -4 9 13 5 13 -4 18 -8 10 -11z m-464 2 c-3
-3 -12 -4 -19 -1 -8 3 -5 6 6 6 11 1 17 -2 13 -5z m379 -57 c8 -5 12 -12 9
-16 -2 -5 2 -14 10 -21 8 -7 15 -18 15 -25 0 -19 30 -27 47 -14 11 10 11 14
-2 29 -8 9 -15 23 -15 31 0 12 -2 12 -9 0 -6 -9 -11 -10 -15 -2 -4 6 -1 20 7
31 l14 20 18 -20 c21 -23 55 -27 55 -5 0 8 5 15 10 15 6 0 10 -7 10 -16 0 -12
9 -15 41 -12 25 2 44 -2 46 -8 2 -7 -6 -10 -23 -6 -24 4 -26 2 -22 -19 3 -13
9 -32 13 -41 5 -13 3 -18 -8 -18 -9 0 -18 4 -21 9 -9 13 -86 -27 -86 -44 0 -8
-4 -15 -10 -15 -5 0 -10 5 -10 10 0 6 -8 10 -17 8 -13 -2 -19 5 -21 23 -2 20
-10 28 -31 32 -30 6 -40 22 -47 72 -4 32 18 57 25 27 2 -9 10 -21 17 -25z
m157 -114 c-7 -2 -19 -2 -25 0 -7 3 -2 5 12 5 14 0 19 -2 13 -5z"/>
<path d="M7993 5111 c-7 -10 -9 -22 -6 -25 6 -6 32 23 33 37 0 14 -15 7 -27
-12z"/>
<path d="M7928 5033 c7 -3 16 -2 19 1 4 3 -2 6 -13 5 -11 0 -14 -3 -6 -6z"/>
<path d="M457 9663 c-4 -3 -7 -21 -7 -39 0 -58 95 -111 119 -66 18 33 6 56
-45 84 -53 30 -57 31 -67 21z"/>
<path d="M16 9604 c-15 -39 12 -67 40 -43 19 15 18 45 -2 53 -24 9 -31 7 -38
-10z"/>
<path d="M6350 9544 c-113 -7 -299 -17 -415 -23 -115 -5 -255 -12 -310 -16
-55 -3 -291 -14 -525 -25 -234 -11 -436 -23 -450 -26 -14 -2 -135 -9 -270 -14
-604 -22 -1064 -40 -1170 -46 -161 -9 -189 -28 -190 -131 0 -53 4 -66 27 -94
l27 -32 261 7 c143 5 305 12 360 17 55 5 242 13 415 18 173 5 358 12 410 15
144 9 475 25 765 36 333 13 539 28 590 42 24 6 150 12 310 13 324 2 410 12
442 50 18 21 23 38 23 85 0 32 -4 70 -10 84 -8 23 -58 58 -77 54 -4 0 -100 -7
-213 -14z"/>
<path d="M475 9362 c-4 -17 0 -28 12 -38 30 -23 43 -17 43 20 0 28 -4 34 -24
38 -20 4 -26 0 -31 -20z"/>
<path d="M13413 9333 c-21 -8 -15 -50 10 -73 l22 -21 28 31 c27 30 28 33 11
51 -16 18 -45 23 -71 12z"/>
<path d="M7 9103 c-4 -3 -7 -30 -7 -58 0 -39 5 -56 20 -70 11 -10 20 -26 20
-36 0 -10 -9 -23 -20 -29 -17 -9 -20 -21 -20 -69 0 -33 7 -71 15 -87 19 -36
19 -48 0 -64 -10 -8 -15 -30 -15 -63 l0 -50 62 6 c66 6 94 26 83 60 -3 9 -8
26 -11 37 -4 13 -2 20 7 20 8 1 26 17 41 36 22 29 25 40 17 62 -14 40 -69 98
-104 109 -19 6 -31 17 -33 31 -3 21 13 31 20 14 2 -5 15 -12 30 -16 21 -5 33
0 52 19 36 36 34 76 -4 109 -42 35 -134 59 -153 39z"/>
<path d="M6495 8984 c-140 -11 -1328 -65 -1730 -79 -82 -3 -193 -7 -245 -10
-52 -3 -162 -7 -245 -10 -82 -3 -233 -10 -335 -15 -102 -6 -324 -15 -495 -20
-170 -6 -325 -13 -342 -16 -93 -14 -116 -188 -32 -238 24 -14 55 -15 265 -6
132 5 372 14 534 20 162 6 459 17 660 25 201 8 484 20 630 25 146 6 303 12
350 15 47 3 256 12 465 21 645 28 620 25 649 53 24 22 26 31 26 107 0 80 -1
83 -31 108 -18 16 -41 25 -57 24 -15 -1 -45 -3 -67 -4z"/>
<path d="M15653 8906 c-68 -17 -148 -26 -315 -35 -315 -16 -339 -19 -360 -38
-17 -15 -18 -37 -18 -288 0 -254 1 -273 19 -289 17 -16 41 -17 292 -9 275 8
317 6 467 -28 44 -10 56 -10 62 1 12 19 23 334 18 501 -4 154 -17 203 -53 206
-11 0 -61 -9 -112 -21z"/>
<path d="M14497 8853 c-69 -24 -185 -35 -527 -49 -135 -5 -174 -14 -184 -41
-3 -8 1 -65 10 -126 14 -91 14 -122 5 -176 -7 -36 -12 -104 -12 -151 0 -120 4
-123 165 -113 66 4 209 7 316 8 165 0 202 -3 240 -18 25 -10 57 -19 72 -21 47
-4 51 29 46 372 -3 169 -8 315 -12 325 -10 22 -35 20 -119 -10z"/>
<path d="M8625 8839 c22 -5 44 -14 49 -19 6 -6 19 -10 31 -10 15 1 12 5 -15
20 -19 11 -51 19 -70 19 l-35 -1 40 -9z"/>
<path d="M13432 8770 c-11 -23 -12 -89 -7 -304 3 -151 10 -287 14 -302 l8 -29
13 30 c14 36 9 590 -6 617 -8 15 -11 14 -22 -12z"/>
<path d="M12948 8769 c-229 -9 -275 -16 -304 -44 -24 -24 -24 -28 -24 -210 0
-102 5 -206 11 -230 14 -56 50 -90 123 -115 72 -24 119 -25 177 -3 34 12 74
16 173 14 70 -1 137 1 147 4 30 10 42 76 33 179 -5 50 -7 159 -5 243 3 177 4
176 -102 171 -34 -2 -137 -6 -229 -9z"/>
<path d="M12246 8754 c-53 -19 -248 -44 -346 -44 -43 0 -137 -5 -207 -10 -181
-15 -169 6 -168 -301 1 -261 4 -282 50 -293 13 -3 80 0 147 8 145 18 467 15
540 -5 82 -22 79 -33 76 323 -3 293 -4 310 -22 324 -23 16 -20 17 -70 -2z"/>
<path d="M8524 8731 c3 -5 17 -8 32 -8 18 0 22 2 13 8 -18 11 -52 11 -45 0z"/>
<path d="M8168 8713 c7 -3 16 -2 19 1 4 3 -2 6 -13 5 -11 0 -14 -3 -6 -6z"/>
<path d="M11143 8685 c-22 -9 -129 -19 -330 -30 -164 -9 -307 -18 -318 -21
-51 -10 -50 -4 -46 -286 2 -177 7 -268 14 -277 12 -14 32 -14 488 5 137 6 161
5 204 -11 l48 -19 18 23 c17 21 19 46 19 298 0 270 -4 305 -34 325 -15 11 -26
9 -63 -7z"/>
<path d="M253 8604 c-12 -5 33 -84 49 -84 14 0 48 34 48 48 0 7 -16 20 -35 28
-36 15 -42 16 -62 8z"/>
<path d="M6319 8395 c-3 -2 -156 -9 -340 -15 -183 -5 -449 -14 -589 -20 -140
-6 -401 -15 -580 -20 -179 -6 -433 -15 -565 -20 -132 -5 -406 -14 -610 -20
-464 -13 -534 -18 -563 -36 -33 -21 -44 -58 -37 -128 5 -49 11 -66 33 -85 l27
-24 280 7 c154 4 309 9 345 11 36 3 241 10 455 15 535 14 556 15 2100 71 165
6 310 13 322 15 48 9 63 41 63 130 0 77 -2 84 -26 103 -24 19 -40 21 -169 21
-78 0 -144 -2 -146 -5z"/>
<path d="M7242 8087 c2 -52 -1 -88 -7 -90 -13 -5 -9 -99 5 -143 13 -37 36 -48
27 -12 -4 12 -1 28 5 36 9 10 8 16 -2 22 -11 7 -13 27 -11 82 7 135 6 167 -7
180 -11 11 -13 -3 -10 -75z"/>
<path d="M7161 8114 c0 -11 3 -14 6 -6 3 7 2 16 -1 19 -3 4 -6 -2 -5 -13z"/>
<path d="M9430 7879 c0 -5 5 -7 10 -4 6 3 10 8 10 11 0 2 -4 4 -10 4 -5 0 -10
-5 -10 -11z"/>
<path d="M9457 7843 c-2 -4 -8 -22 -11 -39 -6 -25 -11 -31 -27 -27 -22 6 -26
-15 -4 -23 21 -8 19 -24 -2 -24 -17 -1 -17 -1 0 -11 17 -10 17 -12 1 -23 -14
-11 -16 -21 -10 -57 10 -65 13 -140 5 -144 -11 -7 2 -128 17 -155 7 -14 13
-19 14 -12 0 6 7 12 15 12 8 0 15 5 15 10 0 6 -8 10 -17 10 -11 0 -14 3 -7 8
6 4 23 26 38 50 25 41 26 43 10 80 -11 26 -16 81 -19 191 -4 146 -7 173 -18
154z m3 -433 c0 -5 -4 -10 -10 -10 -5 0 -10 5 -10 10 0 6 5 10 10 10 6 0 10
-4 10 -10z"/>
<path d="M6397 7815 c-1 -1 -114 -5 -252 -9 -137 -3 -371 -10 -520 -15 -148
-6 -389 -13 -535 -16 -146 -4 -285 -8 -310 -10 -25 -2 -180 -7 -345 -10 -165
-4 -311 -8 -325 -10 -14 -2 -191 -7 -395 -10 -203 -4 -376 -9 -385 -10 -8 -2
-64 -4 -123 -4 -106 -1 -109 -2 -138 -30 -27 -27 -29 -35 -29 -103 0 -64 3
-77 23 -95 12 -11 32 -24 43 -27 12 -4 172 -2 355 3 184 6 422 13 529 16 107
3 330 10 495 16 370 13 826 26 1345 39 217 5 481 14 585 20 242 14 239 13 243
133 3 82 2 86 -25 107 -24 19 -38 21 -130 19 -57 -1 -104 -3 -106 -4z"/>
<path d="M7224 7792 c2 -9 7 -27 11 -39 3 -13 13 -23 21 -23 28 0 10 62 -21
74 -12 4 -15 1 -11 -12z"/>
<path d="M7297 7774 c-3 -3 -3 -12 0 -20 3 -8 0 -14 -6 -14 -6 0 -11 -10 -11
-22 0 -22 1 -22 25 6 14 16 22 32 18 35 -5 4 -11 10 -14 14 -3 4 -8 4 -12 1z"/>
<path d="M15705 7723 c-38 -14 -85 -18 -543 -39 -110 -6 -148 -11 -164 -23
-18 -15 -20 -30 -21 -211 -2 -222 8 -371 26 -382 7 -4 147 -8 312 -8 298 0
307 -1 453 -37 13 -3 33 0 45 6 22 12 22 13 21 324 0 356 -5 388 -59 386 -16
0 -48 -7 -70 -16z"/>
<path d="M0 5781 c0 -1640 2 -1941 14 -1941 20 0 81 23 181 70 50 23 99 46
110 50 63 29 162 53 307 75 89 14 186 29 213 35 416 80 597 117 705 145 52 13
178 41 280 61 102 20 201 40 220 45 107 26 246 51 329 58 88 8 97 11 118 37
13 16 28 47 34 69 22 82 28 83 284 73 61 -3 166 -14 235 -26 69 -11 184 -26
255 -32 129 -12 254 -23 435 -40 52 -5 165 -12 250 -15 185 -8 189 -7 201 80
6 45 14 64 37 87 18 16 33 24 37 19 3 -6 25 -15 48 -22 23 -6 50 -18 61 -27
27 -24 46 -73 36 -92 -5 -10 -4 -26 3 -41 11 -22 21 -25 92 -30 96 -7 190 -24
251 -45 53 -18 47 -21 144 77 36 36 86 81 113 99 26 18 47 40 47 47 0 8 30 28
68 45 37 16 90 41 117 53 64 30 192 81 275 110 36 12 103 38 150 57 47 20 123
50 170 68 47 18 122 50 166 71 45 22 86 39 93 39 13 0 102 37 187 77 l57 27
-64 14 c-54 13 -208 15 -994 14 -647 -1 -961 -6 -1032 -14 -90 -10 -115 -9
-200 6 -111 20 -164 42 -216 89 l-37 32 10 70 c5 39 12 130 16 202 l7 133 35
34 c64 64 88 71 277 74 947 14 1892 24 2120 22 154 -1 311 3 348 9 94 13 107
30 107 132 0 74 -1 78 -31 104 l-32 26 -666 -5 c-366 -3 -713 -8 -771 -11 -58
-2 -361 -7 -675 -10 -548 -6 -572 -5 -622 13 -28 11 -70 35 -92 53 -35 29 -41
39 -41 75 0 44 20 69 95 117 61 39 135 47 429 47 149 0 485 4 746 10 439 8
1118 19 1440 22 74 0 145 6 158 11 34 16 52 58 52 126 0 50 -4 65 -27 91 l-27
33 -515 -7 c-284 -4 -707 -9 -941 -11 -234 -2 -535 -9 -670 -16 -135 -6 -317
-10 -405 -8 -151 4 -163 6 -210 31 -81 44 -105 71 -105 117 0 34 6 45 49 84
81 72 96 74 621 82 250 4 469 8 485 10 17 2 278 9 580 14 1134 22 1095 20
1122 47 20 20 23 33 23 98 0 64 -3 79 -24 102 l-23 28 -264 -2 c-498 -4 -954
-13 -1104 -22 -82 -5 -359 -12 -615 -15 -256 -3 -494 -7 -530 -9 -36 -2 -272
-7 -525 -11 -357 -6 -468 -10 -494 -21 -18 -8 -59 -41 -91 -74 l-57 -60 -611
0 -611 0 -19 28 c-29 41 -34 60 -42 150 -8 95 -25 121 -96 148 -39 15 -70 15
-333 4 -200 -8 -296 -8 -309 -1 -11 6 -25 23 -31 40 -10 24 -10 34 3 60 17 31
43 51 70 51 8 0 27 5 43 11 l28 11 -25 13 c-14 7 -76 20 -138 29 -62 9 -124
21 -138 26 -14 6 -41 10 -60 10 -19 0 -34 4 -34 9 0 5 -21 11 -47 14 -81 8
-345 56 -398 72 -27 8 -83 17 -122 21 l-73 7 0 -1942z m3176 -776 c50 -39 75
-40 137 -8 32 16 85 5 108 -23 10 -12 9 -16 -8 -20 -11 -3 -31 -24 -44 -45
-43 -72 -41 -71 -161 -67 -96 3 -112 6 -124 23 -10 13 -13 30 -8 50 4 17 7 42
8 56 1 22 30 69 42 69 2 0 25 -16 50 -35z m367 -42 c-7 -2 -19 -2 -25 0 -7 3
-2 5 12 5 14 0 19 -2 13 -5z m-23 -39 c0 -8 -5 -12 -10 -9 -6 4 -8 11 -5 16 9
14 15 11 15 -7z"/>
<path d="M14546 7692 c-15 -24 -164 -42 -425 -52 -150 -6 -282 -15 -293 -21
-19 -10 -19 -17 -11 -142 4 -73 7 -153 6 -179 -7 -183 -6 -225 5 -245 l12 -22
308 3 c305 3 307 3 377 -21 108 -39 113 -39 120 -10 4 14 5 167 3 339 -4 349
-5 358 -63 358 -18 0 -36 -4 -39 -8z"/>
<path d="M7280 7672 c0 -18 12 -42 21 -42 14 0 10 26 -6 40 -9 8 -15 8 -15 2z"/>
<path d="M13450 7611 c-8 -17 -11 -102 -10 -303 1 -235 3 -283 16 -295 8 -9
18 -12 22 -8 10 10 4 593 -7 612 -7 14 -10 13 -21 -6z"/>
<path d="M12253 7600 c-51 -23 -106 -27 -401 -35 -250 -7 -279 -10 -297 -25
-10 -8 -15 -59 -19 -178 -4 -92 -9 -208 -12 -259 -6 -107 7 -138 63 -149 18
-3 155 -1 305 5 266 11 292 10 401 -17 61 -16 62 -9 59 323 -3 295 -5 319 -28
342 -16 16 -19 16 -71 -7z"/>
<path d="M12867 7601 c-175 -6 -179 -6 -199 -31 -18 -22 -19 -34 -14 -95 3
-38 2 -148 -4 -244 -10 -183 -7 -199 33 -225 17 -11 33 -13 67 -6 25 5 150 13
277 18 155 5 237 12 245 20 18 18 15 552 -4 563 -14 9 -110 9 -401 0z"/>
<path d="M11152 7554 c-36 -16 -104 -21 -428 -33 -127 -5 -229 -13 -241 -19
-21 -11 -21 -17 -19 -269 1 -169 5 -265 12 -277 11 -18 22 -19 165 -15 283 7
462 1 510 -15 60 -21 76 -20 90 7 17 30 13 571 -4 607 -14 30 -40 34 -85 14z"/>
<path d="M10100 7510 c-9 -5 -56 -10 -105 -11 -84 -2 -306 -24 -331 -33 -14
-5 -46 -66 -35 -66 12 0 1 -147 -15 -211 -8 -31 -14 -102 -14 -158 l0 -101 38
-1 c20 -1 127 -2 237 -3 130 -1 210 -6 227 -13 72 -32 80 4 70 318 -6 218 -10
258 -24 273 -19 18 -26 19 -48 6z"/>
<path d="M8720 7482 c0 -6 -22 -8 -56 -6 -36 2 -65 -1 -84 -11 -28 -14 -74
-32 -162 -62 -45 -15 -48 -15 -84 6 -20 12 -39 19 -43 16 -10 -10 47 -107 92
-157 42 -47 43 -48 105 -48 50 0 60 -3 56 -15 -4 -10 0 -15 12 -15 26 -1 133
53 134 66 0 20 50 26 154 18 56 -4 105 -7 109 -6 7 2 73 -42 87 -59 21 -23 60
-39 95 -38 27 1 32 3 15 6 -31 6 -51 23 -27 23 9 0 17 5 17 10 0 6 -7 10 -15
10 -9 0 -19 10 -24 23 -5 12 -23 37 -40 56 -17 19 -31 41 -31 48 0 19 48 16
99 -7 48 -22 81 -26 81 -9 0 6 -9 9 -20 6 -11 -3 -20 -1 -20 4 0 5 15 10 33
10 21 1 25 3 12 6 -35 9 -47 24 -33 41 11 13 7 14 -29 7 -26 -4 -49 -2 -60 5
-15 9 -12 10 17 5 33 -6 34 -5 16 10 -20 15 -20 15 0 15 19 1 19 1 0 12 -14 8
-24 8 -36 0 -12 -7 -21 -7 -28 0 -7 7 -16 6 -30 -1 -11 -6 -29 -11 -40 -11
-11 0 -22 -7 -25 -15 -5 -12 -11 -12 -43 1 -21 9 -54 17 -73 19 -19 2 -40 11
-47 20 -14 18 -84 33 -84 17z m400 -102 c0 -5 -12 -10 -27 -10 -22 0 -25 2
-13 10 20 13 40 13 40 0z"/>
<path d="M9010 7470 c0 -5 7 -10 16 -10 8 0 12 5 9 10 -3 6 -10 10 -16 10 -5
0 -9 -4 -9 -10z"/>
<path d="M7568 7453 c7 -3 16 -2 19 1 4 3 -2 6 -13 5 -11 0 -14 -3 -6 -6z"/>
<path d="M9591 7362 c-7 -18 -10 -40 -6 -49 6 -14 10 -9 17 21 11 52 5 68 -11
28z"/>
<path d="M9098 7323 c7 -3 16 -2 19 1 4 3 -2 6 -13 5 -11 0 -14 -3 -6 -6z"/>
<path d="M9433 7285 c-6 -6 -8 -18 -3 -24 5 -9 9 -5 13 10 7 28 6 31 -10 14z"/>
<path d="M8723 7143 c9 -2 25 -2 35 0 9 3 1 5 -18 5 -19 0 -27 -2 -17 -5z"/>
<path d="M9462 7115 c-15 -32 -15 -72 -1 -80 5 -4 22 -4 35 -1 20 5 24 11 18
24 -4 9 -9 32 -12 50 -5 38 -24 42 -40 7z"/>
<path d="M7100 7120 c8 -5 22 -10 30 -10 13 0 13 1 0 10 -8 5 -22 10 -30 10
-13 0 -13 -1 0 -10z"/>
<path d="M7545 7075 l-50 -13 45 -1 c52 -1 90 7 90 20 0 12 -23 10 -85 -6z"/>
<path d="M7878 6813 c-18 -15 -35 -28 -37 -30 -2 -2 -1 -6 2 -9 4 -4 18 1 31
10 14 9 32 16 40 16 11 0 26 20 26 36 0 13 -33 0 -62 -23z"/>
<path d="M7177 6799 c7 -7 15 -10 18 -7 3 3 -2 9 -12 12 -14 6 -15 5 -6 -5z"/>
<path d="M8531 6805 c2 -2 18 -20 34 -41 17 -20 56 -64 88 -98 31 -35 67 -81
80 -104 12 -23 46 -67 75 -98 62 -65 108 -134 117 -175 4 -16 10 -27 15 -24
18 11 -50 195 -73 195 -11 0 -87 74 -87 84 0 4 -15 24 -34 44 -19 20 -47 55
-61 77 -15 21 -43 55 -61 73 -19 19 -34 37 -34 41 0 4 -11 13 -25 19 -27 12
-42 15 -34 7z"/>
<path d="M7831 6584 c1 -21 -2 -57 -6 -79 -6 -37 -4 -44 33 -89 39 -47 57 -97
40 -114 -5 -5 0 -19 10 -33 14 -17 17 -30 11 -46 -7 -18 -14 -21 -51 -19 -44
3 -88 23 -88 40 0 4 -6 3 -14 -3 -7 -6 -21 -9 -30 -5 -11 4 -19 -1 -25 -18 -5
-13 -16 -30 -25 -37 -19 -16 -21 -27 -3 -29 6 0 59 -18 117 -38 66 -23 128
-38 165 -40 33 -1 68 -6 77 -9 10 -4 30 -2 45 3 17 6 21 11 11 11 -25 1 -41
36 -24 50 19 16 85 21 115 9 18 -7 33 -5 56 8 36 19 95 13 115 -11 6 -7 18
-11 26 -8 8 3 22 2 32 -2 16 -6 16 -7 -2 -20 -17 -13 -15 -14 20 -9 22 3 58
14 81 25 24 10 48 19 55 19 7 0 31 7 53 15 22 8 61 14 87 15 58 0 66 11 28 38
-33 25 -60 28 -79 10 -9 -10 -60 -13 -187 -13 -124 0 -177 -3 -182 -12 -9 -14
-86 -15 -120 -2 -19 7 -21 12 -12 29 6 11 15 20 21 20 22 0 69 42 85 76 19 40
101 117 150 140 38 18 94 69 94 85 0 27 -144 -25 -164 -60 -13 -22 -71 -81
-80 -81 -4 0 -5 4 -2 9 11 18 -20 31 -52 22 -36 -11 -101 -4 -122 13 -19 14
-53 66 -56 84 -2 8 -9 19 -18 25 -8 7 -17 26 -19 42 -2 18 -4 10 -4 -18 0 -29
4 -43 8 -35 6 9 9 9 9 1 0 -6 -3 -14 -8 -17 -13 -8 -111 39 -142 69 l-30 29 1
-40z m-38 -371 c-7 -2 -19 -2 -25 0 -7 3 -2 5 12 5 14 0 19 -2 13 -5z m242
-93 c18 -8 17 -9 -7 -9 -15 -1 -30 4 -33 9 -7 12 12 12 40 0z"/>
<path d="M7265 6587 c-4 -10 -5 -21 -1 -24 10 -10 18 4 13 24 -4 17 -4 17 -12
0z"/>
<path d="M15745 6525 c-32 -8 -169 -16 -387 -21 -332 -9 -338 -9 -360 -32 -23
-22 -23 -24 -22 -298 1 -260 2 -276 21 -302 l20 -27 149 1 c98 0 163 5 192 14
37 12 50 12 106 -3 35 -9 95 -17 133 -17 37 0 86 -5 108 -10 47 -11 120 4 149
31 18 17 18 20 3 43 -15 22 -17 63 -17 305 0 244 -2 284 -16 306 -9 14 -19 25
-23 24 -3 0 -28 -7 -56 -14z"/>
<path d="M14558 6504 c-11 -10 -243 -23 -466 -25 -195 -2 -226 -5 -252 -21
-17 -10 -30 -23 -30 -30 -1 -7 -1 -131 -2 -275 -2 -292 1 -306 64 -318 18 -3
164 -5 323 -3 160 2 318 -1 351 -6 47 -6 70 -5 93 5 33 15 47 41 34 61 -4 7
-8 139 -8 293 -1 317 -3 325 -64 325 -21 0 -40 -3 -43 -6z"/>
<path d="M12235 6450 c-22 -5 -117 -9 -211 -9 -94 -1 -233 -4 -309 -8 -192 -9
-185 -1 -185 -221 0 -280 16 -363 73 -394 11 -5 157 -9 359 -9 278 0 345 3
362 15 22 14 22 18 24 297 2 308 -1 333 -48 336 -14 0 -43 -3 -65 -7z"/>
<path d="M13155 6450 c-27 -5 -143 -9 -256 -9 -196 -1 -207 -2 -225 -22 -18
-20 -19 -40 -19 -286 l0 -265 30 -24 30 -25 280 2 c265 3 310 7 327 33 11 16
10 121 -3 346 -13 236 -12 234 -44 248 -28 13 -45 13 -120 2z"/>
<path d="M13460 6445 c-9 -10 -13 -38 -12 -73 1 -31 3 -163 5 -292 l4 -235 23
0 24 0 -3 295 c-2 221 -6 298 -15 308 -10 11 -15 10 -26 -3z"/>
<path d="M11180 6437 c-14 -6 -170 -13 -347 -17 -347 -8 -364 -11 -381 -63 -4
-12 -5 -131 -2 -264 5 -236 6 -243 28 -265 22 -23 26 -23 370 -30 191 -4 358
-8 372 -8 14 0 32 10 41 21 14 19 15 55 11 293 -5 283 -11 328 -49 338 -10 3
-30 0 -43 -5z"/>
<path d="M10095 6411 c-11 -4 -157 -11 -323 -15 -167 -4 -314 -11 -327 -16
-13 -5 -31 -21 -41 -35 -15 -22 -16 -50 -9 -267 7 -231 8 -242 30 -264 22 -22
26 -22 381 -26 337 -4 360 -3 379 14 19 17 19 30 16 286 -2 231 -5 271 -20
297 -18 31 -49 41 -86 26z"/>
<path d="M7516 6165 c3 -22 12 -51 19 -65 19 -34 18 -25 -5 45 -17 48 -19 52
-14 20z"/>
<path d="M8125 6060 c3 -5 8 -10 11 -10 2 0 4 5 4 10 0 6 -5 10 -11 10 -5 0
-7 -4 -4 -10z"/>
<path d="M9109 6036 c-38 -53 -56 -119 -51 -189 3 -50 9 -70 21 -77 24 -12 46
-7 71 15 17 15 20 30 20 90 0 67 -22 169 -38 179 -4 2 -14 -6 -23 -18z"/>
<path d="M14645 5507 c-220 -4 -564 -9 -764 -10 -268 -1 -365 -5 -368 -14 -3
-8 46 -12 186 -15 126 -2 194 -7 202 -15 8 -8 19 -8 43 0 21 7 266 11 741 12
691 2 993 8 1105 24 137 19 -563 30 -1145 18z"/>
<path d="M11400 5470 c-25 -4 98 -8 273 -8 206 -1 317 2 317 8 0 11 -517 11
-590 0z"/>
<path d="M13893 5412 c-7 -27 -93 -67 -207 -97 -186 -50 -236 -78 -236 -134 0
-14 7 -35 16 -46 13 -18 25 -20 103 -17 77 2 92 -1 122 -21 58 -39 58 -137 -1
-190 -30 -26 -33 -27 -108 -21 -114 10 -112 14 -112 -208 0 -174 1 -183 27
-240 25 -57 26 -61 10 -88 -18 -29 -22 -60 -9 -61 4 0 27 -2 52 -3 25 -2 63
-10 85 -19 55 -22 135 -21 223 4 86 24 111 21 197 -20 33 -16 94 -46 135 -65
136 -66 151 -78 263 -218 30 -38 45 -48 68 -48 23 0 32 6 39 26 6 14 8 29 5
33 -2 4 4 30 14 57 l19 49 89 1 c48 0 111 4 139 9 41 6 57 4 89 -14 22 -12 58
-21 79 -21 62 0 416 -38 518 -56 21 -3 43 -12 49 -20 6 -8 18 -14 26 -14 7 0
31 -18 53 -40 45 -46 62 -48 140 -21 30 11 57 18 61 15 3 -2 17 8 29 21 23 24
50 33 50 17 0 -5 11 -14 25 -20 58 -27 55 -57 55 503 l0 515 -77 0 c-92 1
-146 11 -168 34 -36 35 -82 63 -125 75 -87 25 -109 52 -70 91 17 17 33 20 98
20 43 0 103 -4 133 -9 30 -5 89 -12 132 -15 l77 -6 0 73 0 72 -57 12 c-32 7
-98 24 -148 39 -130 38 -198 47 -248 35 -23 -5 -81 -19 -129 -30 -48 -12 -156
-39 -241 -61 -164 -42 -158 -42 -497 -37 -58 1 -148 0 -200 -3 -82 -3 -109 0
-195 24 -209 59 -265 79 -292 102 -15 14 -38 27 -50 30 -13 4 -23 10 -23 15 0
17 -22 9 -27 -9z m332 -237 c77 -8 164 -15 193 -15 55 0 142 -18 142 -29 -1
-45 -89 -62 -201 -39 -46 9 -77 9 -146 -1 -234 -34 -314 -30 -357 18 -22 24
-7 68 26 74 51 10 211 6 343 -8z m688 -14 c6 -25 -15 -34 -48 -21 -31 12 -31
18 -2 30 34 14 44 12 50 -9z m763 -479 c22 -33 22 -33 4 -98 -9 -36 -20 -68
-24 -71 -12 -12 -49 24 -62 62 -19 56 -17 88 7 119 26 34 47 30 75 -12z
m-1716 -139 c0 -28 -15 -44 -33 -37 -9 3 -17 13 -17 21 0 8 5 11 10 8 6 -3 10
1 10 9 0 9 7 16 15 16 8 0 15 -8 15 -17z m1850 -160 c0 -37 -13 -63 -30 -63
-22 0 -34 31 -25 60 8 26 55 28 55 3z"/>
<path d="M10620 5339 c-41 -21 -117 -55 -168 -75 -82 -31 -111 -37 -230 -45
-124 -9 -519 2 -540 15 -9 5 -197 -11 -224 -20 -20 -6 -20 -6 1 -20 11 -8 45
-23 75 -34 97 -33 220 -95 315 -159 99 -67 209 -122 398 -200 215 -89 247
-103 318 -146 38 -23 108 -61 155 -85 96 -48 161 -93 205 -142 121 -134 186
-215 225 -277 46 -73 55 -79 106 -61 28 10 73 17 264 44 52 8 115 21 140 29
53 18 196 51 295 67 39 6 99 18 135 25 245 52 346 58 533 30 132 -19 295 -18
321 4 10 8 13 22 10 41 -9 41 11 70 47 70 44 0 87 -26 147 -88 52 -54 52 -55
103 -50 79 8 91 26 99 150 4 57 5 119 2 138 -3 19 -7 132 -8 250 -2 295 -1
278 -27 304 -21 21 -29 23 -67 16 -24 -4 -50 -6 -57 -3 -16 6 -17 35 0 52 19
20 -33 57 -100 71 -48 10 -79 9 -180 -5 -71 -10 -140 -14 -165 -10 -62 10
-214 51 -278 76 -30 12 -85 30 -121 40 l-67 18 -93 -23 c-210 -54 -277 -99
-221 -149 17 -16 24 -16 93 1 44 11 100 18 139 16 134 -5 237 -16 309 -30 41
-9 126 -16 189 -17 135 -2 147 -10 118 -74 -12 -27 -28 -43 -56 -55 -41 -17
-55 -53 -26 -64 24 -9 27 -34 7 -73 -10 -20 -28 -57 -40 -83 -12 -26 -27 -50
-32 -54 -6 -4 -6 -10 1 -19 8 -9 4 -20 -15 -43 -29 -34 -31 -44 -10 -36 8 4
15 1 15 -4 0 -16 -36 -24 -70 -17 -17 4 -30 3 -30 -2 0 -11 -81 -59 -94 -55
-5 2 -6 -4 -3 -11 3 -8 1 -19 -4 -24 -6 -6 6 -10 33 -11 60 -3 77 -10 84 -37
17 -69 -86 -136 -133 -86 -10 11 -31 23 -46 26 -16 4 -31 13 -33 20 -8 19 14
65 31 65 9 0 13 5 10 10 -4 6 -11 8 -16 5 -5 -3 -7 0 -4 7 5 16 -11 38 -45 59
-27 17 -78 16 -117 -3 -17 -8 -26 -8 -38 2 -20 16 -47 79 -40 91 3 4 3 19 -1
33 -4 19 -14 26 -45 31 -21 4 -49 15 -63 26 -25 20 -66 26 -66 10 0 -5 -19
-16 -42 -23 -24 -8 -44 -20 -44 -26 -1 -7 -2 -15 -3 -19 0 -5 -16 -8 -35 -8
-32 0 -33 1 -24 27 6 17 15 25 23 21 9 -3 16 5 21 24 3 15 17 47 30 69 24 42
23 54 -5 54 -17 0 -51 -33 -51 -49 0 -14 -55 -24 -140 -26 -41 0 -101 -9 -133
-20 l-57 -18 -46 23 c-42 22 -49 23 -127 13 -71 -10 -86 -9 -109 5 -29 17 -32
26 -29 80 2 26 -4 40 -28 63 -17 16 -35 29 -41 29 -5 0 -10 8 -10 18 0 13 -6
18 -22 16 -13 -1 -26 -3 -30 -3 -5 -1 -8 -26 -8 -56 0 -30 -4 -55 -10 -55 -5
0 -10 13 -10 28 0 43 -22 80 -50 85 -14 3 -56 13 -95 21 -74 18 -190 21 -315
10 -57 -5 -84 -2 -113 9 -46 20 -65 59 -43 92 14 22 23 23 208 29 106 4 235 5
285 2 96 -5 114 1 85 26 -18 16 -197 98 -214 98 -5 0 -24 11 -42 25 -18 14
-37 24 -42 24 -5 -1 -43 -19 -84 -40z m467 -341 c-3 -7 -5 -2 -5 12 0 14 2 19
5 13 2 -7 2 -19 0 -25z"/>
<path d="M7043 5235 c0 -22 2 -30 4 -17 2 12 2 30 0 40 -3 9 -5 -1 -4 -23z"/>
<path d="M11557 5213 c-14 -13 -6 -33 12 -33 25 0 38 20 20 31 -17 11 -24 11
-32 2z"/>
<path d="M11170 5190 c0 -6 7 -10 15 -10 8 0 15 2 15 4 0 2 -7 6 -15 10 -8 3
-15 1 -15 -4z"/>
<path d="M7510 4830 c0 -6 7 -13 15 -17 24 -9 27 1 5 15 -13 8 -20 8 -20 2z"/>
<path d="M7150 4821 c0 -12 71 -71 85 -71 5 0 37 -18 69 -40 40 -27 63 -37 70
-30 5 5 8 11 5 12 -2 2 -31 16 -64 33 -33 16 -84 46 -112 67 -29 21 -53 34
-53 29z"/>
<path d="M8333 4818 c-13 -17 -25 -48 -29 -73 -14 -96 -36 -200 -44 -210 -6
-7 -14 -41 -19 -76 -4 -35 -10 -68 -11 -74 -5 -14 10 -55 20 -55 5 0 11 4 14
9 3 4 17 6 31 4 18 -4 26 0 31 13 3 11 10 28 14 39 20 46 21 85 4 114 -10 18
-14 36 -10 47 11 26 13 104 4 104 -4 0 -8 5 -8 10 0 6 6 10 14 10 17 0 26 31
26 98 0 53 -15 69 -37 40z"/>
<path d="M8581 4769 c-21 -17 -22 -22 -10 -30 20 -13 52 -11 43 2 -3 6 -1 15
6 19 12 8 6 30 -8 30 -4 -1 -18 -10 -31 -21z"/>
<path d="M8640 4770 c0 -5 5 -10 11 -10 5 0 7 5 4 10 -3 6 -8 10 -11 10 -2 0
-4 -4 -4 -10z"/>
<path d="M7560 4762 c0 -7 4 -12 10 -12 13 0 40 -54 40 -79 0 -11 10 -27 22
-35 22 -16 22 -16 2 -16 -11 0 -44 7 -73 16 -29 8 -55 14 -57 11 -2 -2 22 -12
54 -21 31 -10 69 -27 83 -37 42 -29 254 -109 292 -109 21 0 117 51 117 62 0 4
-12 7 -27 7 -99 -2 -303 24 -303 38 0 2 15 17 32 34 l32 29 -44 0 c-53 1 -74
15 -94 61 -10 23 -15 28 -16 15 0 -17 -5 -15 -35 14 -19 19 -35 29 -35 22z"/>
<path d="M7430 4670 c0 -6 7 -10 15 -10 8 0 15 2 15 4 0 2 -7 6 -15 10 -8 3
-15 1 -15 -4z"/>
<path d="M7390 4635 c0 -12 60 -114 60 -102 0 8 -32 72 -49 97 -6 8 -11 11
-11 5z"/>
<path d="M7868 4593 c6 -2 18 -2 25 0 6 3 1 5 -13 5 -14 0 -19 -2 -12 -5z"/>
<path d="M8572 4578 c6 -18 28 -21 28 -4 0 9 -7 16 -16 16 -9 0 -14 -5 -12
-12z"/>
<path d="M8428 4563 c12 -2 30 -2 40 0 9 3 -1 5 -23 4 -22 0 -30 -2 -17 -4z"/>
<path d="M8040 4510 c0 -5 5 -10 10 -10 6 0 10 5 10 10 0 6 -4 10 -10 10 -5 0
-10 -4 -10 -10z"/>
<path d="M8331 4269 c-35 -32 -60 -59 -55 -59 13 1 130 108 124 113 -3 3 -34
-22 -69 -54z"/>
<path d="M8258 4313 c7 -3 16 -2 19 1 4 3 -2 6 -13 5 -11 0 -14 -3 -6 -6z"/>
<path d="M8128 4068 c17 -8 26 -8 34 0 9 9 4 12 -22 11 -33 0 -34 -1 -12 -11z"/>
<path d="M7962 3913 c-41 -108 -44 -213 -25 -888 l10 -360 0 545 c0 456 3 557
16 620 8 41 18 83 22 93 4 9 3 17 -3 17 -5 0 -14 -12 -20 -27z"/>
<path d="M4851 3104 c0 -11 3 -14 6 -6 3 7 2 16 -1 19 -3 4 -6 -2 -5 -13z"/>
<path d="M4851 3004 c0 -11 3 -14 6 -6 3 7 2 16 -1 19 -3 4 -6 -2 -5 -13z"/>
<path d="M4872 2845 c0 -22 3 -65 8 -95 6 -48 7 -50 8 -15 0 22 -3 65 -8 95
-6 48 -7 50 -8 15z"/>
<path d="M7924 2493 c-4 -42 0 -155 10 -298 10 -126 22 -331 26 -455 l8 -225
-4 290 c-3 160 -10 342 -17 405 -6 63 -11 168 -11 233 1 64 0 117 -2 117 -1 0
-6 -30 -10 -67z"/>
<path d="M4891 2485 c0 -28 5 -106 13 -175 8 -69 17 -158 21 -198 6 -72 12
-95 55 -217 11 -33 28 -93 36 -133 18 -88 53 -184 129 -352 61 -137 138 -277
143 -262 1 5 -11 34 -29 63 -101 171 -239 519 -239 605 0 18 -18 86 -39 151
-33 100 -42 148 -60 313 -29 268 -28 261 -30 205z"/>
<path d="M12548 2413 c-9 -10 -19 -28 -23 -41 -4 -13 -16 -27 -28 -31 -18 -7
-21 -15 -18 -50 2 -29 -1 -41 -11 -41 -11 0 -11 -2 1 -9 8 -6 -7 -11 -45 -16
-33 -5 -62 -9 -66 -11 -5 -1 -14 -2 -20 -3 -15 -1 -20 -51 -6 -51 6 0 23 -11
40 -25 16 -14 39 -25 50 -25 19 0 48 -11 123 -45 17 -8 73 -16 125 -19 52 -3
111 -8 132 -11 32 -6 38 -4 54 20 12 19 19 23 25 14 6 -10 13 -10 34 -1 14 7
37 12 50 12 23 0 24 3 27 83 2 45 6 88 8 95 3 8 -4 19 -15 25 -11 7 -22 15
-26 19 -3 5 -27 11 -55 14 -27 4 -58 13 -69 20 -11 8 -27 14 -36 14 -10 0 -30
6 -46 14 -15 8 -46 23 -68 33 -22 10 -41 21 -43 26 -7 15 -79 7 -94 -10z"/>
<path d="M5085 2270 c3 -5 16 -10 28 -9 21 0 21 1 2 9 -28 12 -37 12 -30 0z"/>
<path d="M5157 2215 c36 -46 52 -46 17 0 -14 19 -31 35 -36 35 -5 0 4 -16 19
-35z"/>
<path d="M5208 2159 c6 -7 12 -21 12 -30 0 -9 7 -22 16 -30 8 -7 13 -20 11
-30 -3 -9 6 -29 19 -45 14 -15 21 -31 17 -35 -15 -13 -110 -18 -122 -6 -8 8
-11 8 -11 0 0 -15 32 -25 68 -23 69 5 71 4 107 -76 19 -42 35 -83 35 -90 0 -7
9 -28 20 -46 25 -42 25 -54 0 -61 -11 -3 -20 -13 -19 -24 0 -10 3 -13 6 -5 11
27 39 11 61 -33 12 -25 22 -47 22 -49 0 -2 -21 -18 -47 -35 -27 -17 -61 -43
-78 -59 -16 -15 -39 -33 -50 -40 -11 -6 -15 -12 -8 -12 6 0 24 10 40 23 44 37
121 87 132 87 12 0 46 -90 54 -142 5 -35 4 -38 -19 -38 -13 0 -24 5 -24 10 0
6 -11 5 -27 -3 -16 -8 -41 -17 -58 -21 -16 -4 -33 -13 -37 -19 -11 -17 -10
-47 2 -47 6 0 10 7 10 15 0 8 12 17 28 20 15 4 35 11 46 16 29 16 41 -5 41
-70 -1 -40 3 -57 11 -54 7 2 15 -24 22 -73 6 -42 15 -80 21 -83 6 -4 16 -45
22 -92 6 -46 22 -127 35 -179 28 -112 29 -133 9 -190 -8 -24 -13 -51 -10 -60
7 -22 -30 -95 -57 -114 -17 -12 -19 -16 -6 -16 9 0 18 4 20 10 2 5 14 11 27
12 21 3 26 -3 33 -32 4 -19 6 -51 3 -70 -3 -26 -2 -30 5 -15 7 16 9 10 9 -27
1 -26 6 -50 11 -53 7 -4 10 38 10 127 0 73 0 142 0 153 1 11 -2 32 -6 48 -9
36 5 199 17 191 12 -7 12 19 -1 32 -9 9 -41 187 -37 214 1 8 -2 39 -7 68 -8
50 -19 66 -29 40 -2 -7 -8 19 -11 57 -4 39 -10 78 -13 89 -3 12 -1 16 6 12 6
-4 11 -19 11 -34 0 -15 3 -44 6 -64 5 -30 11 -38 27 -38 16 0 18 3 9 12 -7 7
-12 25 -12 40 0 37 -19 157 -37 238 -8 36 -20 93 -28 127 -12 62 -47 159 -71
198 -6 11 -15 33 -18 49 -10 42 -82 182 -121 237 -47 66 -59 90 -47 98 6 3 -6
17 -26 30 -20 13 -31 17 -24 10z m389 -1711 c-3 -7 -5 -2 -5 12 0 14 2 19 5
13 2 -7 2 -19 0 -25z"/>
<path d="M10987 1993 c-9 -32 -23 -108 -32 -168 -25 -185 -44 -277 -60 -301
-8 -13 -15 -29 -15 -37 0 -7 -8 -31 -19 -53 -10 -21 -28 -82 -41 -134 -23 -98
-65 -200 -81 -200 -5 0 -9 5 -9 10 0 6 4 10 9 10 17 0 23 59 10 95 -7 19 -17
35 -21 35 -15 0 -40 -50 -34 -67 11 -28 -4 -123 -20 -123 -10 0 -14 -12 -14
-39 0 -22 -6 -70 -14 -108 -8 -37 -20 -108 -26 -158 -16 -126 -55 -271 -74
-278 -7 -3 -10 12 -7 45 2 39 -3 62 -23 103 -19 37 -30 79 -37 146 -5 52 -11
101 -11 109 -3 25 14 94 28 115 8 11 14 27 14 37 0 9 9 22 20 28 11 6 22 26
26 48 4 20 13 51 22 67 21 43 90 134 130 172 29 28 33 37 27 60 -5 16 -8 31
-7 36 1 4 -2 7 -8 7 -5 0 -10 5 -10 11 0 14 38 3 73 -22 15 -11 27 -15 27 -9
0 5 7 10 15 10 9 0 18 7 22 15 6 17 -16 39 -54 55 -17 7 -23 18 -23 40 0 27 3
30 33 30 24 0 28 3 17 10 -8 5 -34 10 -57 10 -23 0 -48 3 -57 6 -22 8 -20 31
2 38 27 9 65 53 57 65 -10 17 -39 13 -52 -9 -7 -10 -58 -76 -114 -145 l-101
-126 16 -40 c9 -21 16 -68 16 -103 0 -56 -4 -70 -38 -122 -64 -100 -66 -107
-59 -285 6 -157 -6 -341 -33 -483 -12 -63 -12 -71 13 -176 29 -122 55 -203 69
-211 30 -19 48 -10 48 24 0 18 6 42 14 52 12 16 16 17 30 6 14 -12 16 -9 16
27 0 30 6 45 23 59 35 29 76 124 106 248 5 22 21 83 35 135 13 52 32 136 41
185 9 50 24 106 34 125 9 19 23 55 30 80 7 25 17 55 21 67 13 33 57 210 70
283 19 102 22 132 39 400 6 91 16 194 21 230 19 128 5 165 -23 63z m-247 -443
c0 -11 -2 -20 -5 -20 -2 0 -9 9 -15 20 -9 16 -8 20 5 20 8 0 15 -9 15 -20z
m-150 -153 c0 -48 -15 -39 -24 15 -6 31 -4 37 9 32 10 -4 15 -19 15 -47z"/>
<path d="M5151 1848 c-14 -23 -14 -23 8 -4 22 20 25 26 13 26 -4 0 -13 -10
-21 -22z"/>
<path d="M120 1831 c-14 -5 -46 -15 -72 -21 l-48 -13 0 -118 c0 -70 4 -119 10
-119 5 0 25 9 45 20 20 11 42 20 50 20 8 0 35 13 61 29 25 17 60 33 76 37 17
3 45 14 62 24 17 10 45 21 62 25 18 3 40 15 50 26 9 10 28 19 41 19 29 0 32
36 3 45 -80 26 -294 42 -340 26z"/>
<path d="M800 1750 c0 -5 18 -10 40 -10 22 0 40 5 40 10 0 6 -18 10 -40 10
-22 0 -40 -4 -40 -10z"/>
<path d="M728 1718 c-18 -18 -57 -36 -98 -46 -25 -6 -36 -14 -38 -30 -2 -12
-10 -22 -18 -22 -8 0 -14 -5 -14 -10 0 -7 -7 -7 -21 1 -29 15 -77 4 -104 -25
-14 -15 -38 -26 -68 -30 -34 -5 -50 -13 -58 -29 -16 -29 -28 -37 -60 -37 -15
0 -37 -9 -50 -19 -22 -18 -23 -20 -6 -27 10 -3 39 -3 65 1 26 4 70 11 97 15
36 4 45 9 33 14 -25 11 -22 26 5 26 45 1 112 25 112 40 0 9 21 22 52 33 30 11
53 26 56 37 3 11 14 18 31 18 29 0 56 18 56 38 0 8 5 14 10 14 6 0 10 -7 10
-16 0 -13 4 -13 29 2 28 17 45 47 33 58 -10 10 -40 6 -54 -6z"/>
<path d="M5490 1681 c0 -5 5 -13 10 -16 6 -3 10 -2 10 4 0 5 -4 13 -10 16 -5
3 -10 2 -10 -4z"/>
<path d="M140 1434 c-84 -13 -140 -28 -140 -39 0 -17 68 -35 93 -25 12 5 48
12 80 15 31 4 57 9 57 12 0 9 -45 42 -55 41 -5 0 -21 -2 -35 -4z"/>
<path d="M7973 1370 c0 -41 2 -58 4 -37 2 20 2 54 0 75 -2 20 -4 3 -4 -38z"/>
<path d="M13225 1422 c-22 -9 -59 -28 -82 -41 -39 -22 -43 -29 -43 -62 0 -21
6 -39 13 -42 6 -2 9 -8 5 -12 -10 -10 -340 -8 -347 3 -3 5 -30 12 -59 15 l-52
6 30 -32 c37 -39 41 -96 10 -127 -13 -13 -20 -33 -20 -59 0 -22 -4 -42 -8 -45
-5 -3 -59 -6 -120 -8 -79 -2 -115 1 -123 10 -7 6 -21 12 -30 12 -10 0 -20 11
-23 25 -4 14 -11 25 -16 25 -5 0 -12 -11 -16 -25 -3 -14 -11 -25 -16 -25 -5 0
-9 -17 -7 -37 3 -52 1 -63 -12 -63 -5 0 -8 4 -5 9 3 5 -4 11 -15 14 -12 3 -18
10 -14 16 3 6 0 14 -7 16 -16 7 -202 44 -204 42 -5 -9 20 -195 27 -204 6 -6
12 -60 14 -120 2 -59 6 -121 9 -138 4 -16 7 -46 7 -65 1 -54 13 -67 69 -75 33
-5 50 -12 50 -21 0 -8 -4 -14 -9 -14 -5 0 -12 -12 -15 -28 -4 -15 -9 -35 -13
-46 -4 -16 -1 -18 22 -14 18 4 28 1 32 -9 7 -18 -16 -63 -32 -63 -7 0 -18 -7
-25 -15 -11 -13 -9 -20 12 -43 13 -15 33 -44 43 -64 11 -21 22 -38 25 -38 3 0
20 -13 39 -29 26 -22 45 -30 73 -29 21 0 44 -5 51 -11 10 -8 503 -11 1785 -11
l1772 0 0 114 0 113 -62 31 c-35 16 -88 35 -118 41 -35 7 -80 28 -122 56 -37
25 -79 45 -94 45 -14 0 -34 5 -45 11 -11 5 -68 14 -127 19 -137 11 -169 23
-187 66 -8 19 -21 34 -29 34 -8 0 -17 14 -21 32 -16 72 -41 104 -104 131 -34
15 -67 24 -74 21 -7 -2 -20 1 -30 8 -10 8 -36 12 -62 10 -36 -3 -45 -8 -45
-23 0 -15 -7 -19 -38 -19 -21 0 -47 7 -58 15 -22 16 -90 20 -99 5 -9 -15 -34
-12 -51 5 -11 10 -13 25 -8 49 7 40 17 50 58 60 23 6 27 9 16 16 -13 8 -12 12
5 24 11 9 28 16 38 16 23 0 22 17 -3 32 -11 7 -20 18 -20 24 0 7 -13 26 -30
44 -16 18 -30 38 -30 45 0 19 49 24 86 9 42 -18 51 -18 57 0 4 10 1 13 -9 9
-9 -3 -21 3 -30 16 -8 11 -21 21 -28 21 -8 0 -26 16 -42 35 -15 19 -34 35 -41
35 -7 0 -13 4 -13 9 0 5 -8 11 -17 15 -21 6 -56 28 -64 38 -3 4 -36 15 -75 24
-38 9 -87 22 -109 30 -23 8 -47 14 -54 14 -7 0 -50 17 -94 39 -45 21 -107 44
-137 51 -30 7 -80 20 -110 28 -42 12 -115 16 -313 18 -146 1 -263 6 -270 11
-20 17 -129 13 -172 -5z m-857 -511 c3 -8 -1 -12 -9 -9 -7 2 -15 10 -17 17 -3
8 1 12 9 9 7 -2 15 -10 17 -17z m1805 -2 c23 -12 44 -25 47 -29 3 -4 55 -17
116 -28 132 -25 180 -45 187 -79 2 -13 0 -26 -6 -30 -25 -16 -167 -15 -253 2
-142 27 -181 42 -189 72 -7 31 -1 39 44 50 41 10 52 30 20 35 -23 3 -40 28
-19 28 6 0 30 -10 53 -21z m-1753 -15 c0 -3 -6 -12 -14 -19 -17 -18 -29 -8
-13 11 12 14 27 18 27 8z m1280 -14 c36 -36 20 -80 -29 -80 -48 0 -122 33
-137 62 -17 33 -11 36 79 37 54 1 71 -3 87 -19z m-1217 -13 c2 -7 38 -21 78
-31 41 -11 76 -22 79 -25 8 -10 42 -29 112 -63 64 -32 100 -69 91 -95 -7 -20
-25 -16 -109 27 -43 22 -89 40 -102 40 -12 0 -33 6 -45 14 -12 8 -40 17 -61
21 -36 6 -66 24 -66 40 0 4 -9 19 -21 33 -19 25 -19 27 -3 39 23 17 41 17 47
0z m-343 -84 c0 17 20 25 20 8 0 -23 -14 -41 -31 -41 -14 0 -19 7 -19 27 0 26
1 26 15 7 13 -17 14 -17 15 -1z m2860 -114 c0 -34 -11 -36 -56 -8 -42 25 -36
38 16 37 37 0 40 -2 40 -29z m-292 -13 c5 -3 12 -17 14 -31 5 -22 2 -25 -24
-25 -16 0 -34 5 -41 10 -7 6 -21 17 -32 24 -16 11 -17 17 -7 29 12 14 62 11
90 -7z m412 -241 c0 -29 -12 -32 -39 -8 -24 20 -18 33 15 33 19 0 24 -5 24
-25z"/>
<path d="M12647 1403 c-23 -22 21 -76 58 -71 20 3 29 36 18 65 -5 13 -65 18
-76 6z"/>
<path d="M0 1340 c0 -16 7 -20 38 -20 20 0 44 4 52 10 11 7 9 11 -13 19 -46
18 -77 14 -77 -9z"/>
<path d="M5700 1151 c0 -5 5 -13 10 -16 6 -3 10 -2 10 4 0 5 -4 13 -10 16 -5
3 -10 2 -10 -4z"/>
<path d="M5325 1078 c29 -48 30 -50 77 -168 32 -81 135 -256 145 -246 3 2 -38
87 -90 188 -123 236 -140 268 -150 268 -5 0 4 -19 18 -42z"/>
<path d="M5715 1088 c4 -18 17 -49 30 -68 13 -19 28 -52 35 -72 6 -21 16 -38
21 -38 5 0 9 2 9 4 0 15 -90 206 -97 206 -2 0 -2 -15 2 -32z"/>
<path d="M15280 1050 c0 -5 -16 -10 -35 -10 -23 0 -35 -5 -35 -14 0 -8 16 -28
35 -45 28 -24 35 -38 35 -66 0 -31 3 -35 25 -35 14 0 25 -6 25 -13 0 -16 88
-56 205 -93 105 -33 110 -36 131 -80 11 -22 30 -39 62 -54 26 -11 54 -25 62
-31 8 -5 23 -12 33 -15 9 -4 17 -11 17 -18 0 -10 17 -18 118 -50 l42 -14 0 94
c0 86 -2 94 -19 94 -11 0 -23 5 -26 10 -3 6 -20 10 -36 10 -28 0 -59 19 -59
36 0 7 46 2 108 -11 l32 -7 0 134 0 135 -61 7 c-34 3 -88 6 -120 6 -33 0 -59
4 -59 10 0 6 -33 10 -80 10 -52 0 -80 -4 -80 -11 0 -7 -16 -9 -47 -4 -27 3
-81 8 -120 11 -40 3 -73 10 -73 15 0 5 -18 9 -40 9 -22 0 -40 -4 -40 -10z"/>
<path d="M7961 773 c0 -28 2 -54 7 -57 4 -2 6 14 4 37 -5 68 -10 76 -11 20z"/>
<path d="M5655 710 c8 -42 16 -71 49 -170 13 -41 29 -91 34 -110 30 -106 92
-250 92 -213 0 13 -57 169 -71 195 -5 10 -9 26 -9 35 0 10 -16 63 -35 118 -19
55 -35 109 -35 120 0 11 -8 29 -16 40 -15 19 -16 18 -9 -15z"/>
<path d="M7972 665 c0 -16 2 -22 5 -12 2 9 2 23 0 30 -3 6 -5 -1 -5 -18z"/>
<path d="M5631 654 c0 -11 3 -14 6 -6 3 7 2 16 -1 19 -3 4 -6 -2 -5 -13z"/>
<path d="M7984 450 c4 -80 11 -185 16 -235 5 -50 10 -118 10 -152 0 -35 3 -63
8 -63 14 0 -20 576 -35 590 -3 3 -2 -60 1 -140z"/>
<path d="M15520 563 c0 -15 11 -22 46 -30 51 -12 84 -7 84 12 0 13 -12 17 -92
31 -33 5 -38 4 -38 -13z"/>
<path d="M15762 464 c6 -32 55 -58 117 -62 47 -3 65 -10 82 -28 31 -33 41 -30
37 14 -3 34 -6 37 -36 40 -18 2 -36 10 -39 18 -3 8 -13 14 -23 14 -11 0 -22 5
-25 10 -3 6 -31 10 -61 10 -46 0 -55 -3 -52 -16z"/>
<path d="M5671 414 c0 -11 3 -14 6 -6 3 7 2 16 -1 19 -3 4 -6 -2 -5 -13z"/>
<path d="M4458 398 c-12 -12 -18 -14 -18 -5 0 8 -4 7 -10 -3 -15 -23 -12 -70
4 -70 8 0 17 -11 20 -25 4 -14 11 -25 16 -25 6 0 10 -9 10 -20 0 -14 -7 -20
-24 -20 -57 0 -75 -24 -26 -35 17 -4 30 -10 30 -13 0 -4 -17 -18 -38 -32 -20
-13 -39 -25 -41 -27 -2 -1 -7 -19 -11 -40 -5 -21 -12 -48 -15 -61 l-7 -22 396
0 396 0 0 23 c0 13 -5 28 -10 33 -8 8 -7 20 0 39 6 16 8 36 4 44 -4 9 -8 52
-10 96 -2 84 -10 114 -43 155 -19 24 -23 25 -168 26 -81 1 -171 -2 -199 -5
-28 -4 -94 -5 -145 -1 -81 4 -96 3 -111 -12z"/>
<path d="M10660 159 c0 -5 5 -7 10 -4 6 3 10 8 10 11 0 2 -4 4 -10 4 -5 0 -10
-5 -10 -11z"/>
<path d="M4220 99 c0 -33 -5 -69 -10 -80 -9 -15 -7 -19 7 -19 31 0 43 34 36
100 -4 41 -10 60 -19 60 -10 0 -14 -16 -14 -61z"/>
</g>
</svg>
